{"title":"A.Murder.Of.Crows.1998.iNTERNAL.DVDRip.XviD-EXViDiNT","uid":7011849,"size":736341539,"categoryP":"video","categoryS":"movies","magnet":"?xt=urn:btih:59cdbe5cbf58def5ad47b51abf59645dad05e701&amp;dn=A.Murder.Of.Crows.1998.iNTERNAL.DVDRip.XviD-EXViDiNT&amp;tr=udp%3A%2F%2Ftracker.openbittorrent.com%3A80&amp;tr=udp%3A%2F%2Fopen.demonii.com%3A1337&amp;tr=udp%3A%2F%2Ftracker.coppersurfer.tk%3A6969&amp;tr=udp%3A%2F%2Fexodus.desync.com%3A6969","seeders":0,"leechers":1,"uploader":"TvTeam","files":4,"time":1328495888,"description":". \n &lt;a href=&quot;\nhttp://www.torrenting.com&quot; rel=&quot;nofollow&quot; target=&quot;_NEW&quot;&gt;\nhttp://www.torrenting.com&lt;/a&gt;          :     Once &amp; For all ;)\n\n\n               www . Torrenting . Com \n\n(((((((((((((= Enjoy No RAR releases =))))))))))))))))))))\n\n\n...................................NFO:....................................\n\n.                                                                                                     \n       \n     \n     \n       \n       \n     \n     \n                                         \n                                         \n                EXVID                    \n                                         \n         \n                                         \n         Filled the Archives             \n                                         \n         \n                                         \n                With:                    \n                                         \n         \n                                         \n                                    \n     E240                           \n                                    \n     SP               (C) 2009      \n                                         \n     \n     \n     \n                                                                                  \n                                                                                   \n              A.Murder.Of.Crows.1998.iNTERNAL.DVDRip.XviD-EXViDiNT                  \n                                                                                   \n                                                                                  \n     \n                                                                                               \nEXViD aims to iNTERNAL those releases which have been lost in the archives.\nEXViD aims to PRE non-internal releases which have poor sources and are likely skipped by others. &lt;a href=&quot;\nhttp://www.imdb.com/title/tt0133985/&quot; rel=&quot;nofollow&quot; target=&quot;_NEW&quot;&gt;\nhttp://www.imdb.com/title/tt0133985/&lt;/a&gt;\nSubtitles: NL\nDate: 2012.01\n\nDirector: Rowdy Herrington\n\nGenres: Action | Thriller | Crime\n\nPlot:\nAfter a lawyer gets disbared, he goes off to write a book about his experience. He meets a man\nwho lets him read his manuscript. The man dies and the lawyer passes the book off as his. Just\nwhen the book becomes a big success. He gets arrested for the true life murders of the five\nlawyers in his book. He then finds himself, trying to prove that he is innocent of the murders.\n\nCast:\nCuba Gooding Jr.\t...\tLawson Russell\nTom Berenger\t...\tClifford Dubose\nMarianne Jean-Baptiste\t...\tElizabeth Pope\nEric Stoltz\t...\tThurman Parks III\nMark Pellegrino\t...\tProf. Arthur Corvus\nAshley Laurence\t...\tJanine DeVrie\nCarmen Argenziano\t...\tJudge Wiley Banning\nDoug Wert\t...\tBilly Ray Richardson\nNate Adams\t...\tJames\nJeremiah Black\t...\tBailiff\nDerek Broes\t...\tAgent Manning\nAdrian Colon\t...\tDetective\nGaelle Comparat\t...\tThurman's Girl\nTara Crespo\t...\tYoung Woman\nAnastasia Drake\t...\tClerk\n\nStats:\nFormat                                   : AVI\nFormat/Info                              : Audio Video Interleave\nFile size                                : 702 MiB\nDuration                                 : 1h 37mn\nOverall bit rate mode                    : Variable\nOverall bit rate                         : 1 011 Kbps\n\nVideo\nID                                       : 0\nFormat                                   : MPEG-4 Visual\nFormat profile                           : Advanced Simple@L5\nFormat settings, BVOP                    : 2\nFormat settings, QPel                    : No\nFormat settings, GMC                     : No warppoints\nFormat settings, Matrix                  : Default (H.263)\nCodec ID                                 : XVID\nCodec ID/Hint                            : XviD\nDuration                                 : 1h 37mn\nBit rate                                 : 857 Kbps\nWidth                                    : 608 pixels\nHeight                                   : 336 pixels\nDisplay aspect ratio                     : 16:9\nFrame rate                               : 25.000 fps\nColor space                              : YUV\nChroma subsampling                       : 4:2:0\nBit depth                                : 8 bits\nScan type                                : Progressive\nCompression mode                         : Lossy\nBits/(Pixel*Frame)                       : 0.168\nStream size                              : 596 MiB (85%)\nWriting library                          : XviD 64\n\nAudio\nID                                       : 1\nFormat                                   : MPEG Audio\nFormat version                           : Version 1\nFormat profile                           : Layer 3\nMode                                     : Joint stereo\nMode extension                           : MS Stereo\nCodec ID                                 : 55\nCodec ID/Hint                            : MP3\nDuration                                 : 1h 37mn\nBit rate mode                            : Variable\nBit rate                                 : 141 Kbps\nChannel(s)                               : 2 channels\nSampling rate                            : 48.0 KHz\nCompression mode                         : Lossy\nStream size                              : 97.6 MiB (14%)\nAlignment                                : Aligned on interleaves\nInterleave, duration                     : 24 ms (0.60 video frame)\nInterleave, preload duration             : 486 ms\n\n\n\nRelease notes:\nEnjoy!\n\nLooking for:\n75TB+ Archives\nDUTCH/FLEMiSH Archives\n                                                                                                    \nGreets: CRBS EPiSODE FiCO FLS iLS KLASSiGER LiPSYNC MADE NODLABS RUNNER SPRiNTER      \n   \n\n                                                                    ASCII DONE BY XX^NFO 2oo9","torrent":{"xt":"urn:btih:59cdbe5cbf58def5ad47b51abf59645dad05e701","amp;dn":"A.Murder.Of.Crows.1998.iNTERNAL.DVDRip.XviD-EXViDiNT","amp;tr":["udp%3A%2F%2Ftracker.openbittorrent.com%3A80","udp%3A%2F%2Fopen.demonii.com%3A1337","udp%3A%2F%2Ftracker.coppersurfer.tk%3A6969","udp%3A%2F%2Fexodus.desync.com%3A6969"],"infoHash":"59cdbe5cbf58def5ad47b51abf59645dad05e701","infoHashBuffer":{"type":"Buffer","data":[89,205,190,92,191,88,222,245,173,71,181,26,191,89,100,93,173,5,231,1]},"announce":[],"urlList":[]}}